Coordinates
version=1
nRows=38
nColumns=12
inDegrees=yes

Units are S.I. units (second, meters, Newtons, ...)
Angles are in degrees

endheader
time	SC_y	SC_z	SC_x	AC_y	AC_z	AC_x	GH_y	GH_z	GH_yy	EL_x	PS_y
       0.0               -14.2          32.08          80.04          32.41         -6.505          3.325         -116.0         -5.894          67.05          82.57           33.0
   0.03672              -14.21          32.08          80.04          32.42         -6.504          3.323         -115.9         -5.893          67.04          82.57           33.0
   0.07343              -14.21          32.07          80.03          32.42         -6.503           3.32         -115.9         -5.891          67.03          82.56           33.0
    0.1101              -14.22          32.07          80.03          32.43         -6.502          3.317         -115.9         -5.889          67.02          82.55          32.99
    0.1469              -14.23          32.06          80.03          32.43         -6.501          3.314         -115.8         -5.886          67.01          82.55          32.99
    0.1836              -14.23          32.06          80.02          32.44         -6.499          3.311         -115.8         -5.884          66.99          82.54          32.98
    0.2203              -14.24          32.05          80.02          32.45         -6.498          3.307         -115.8         -5.882          66.98          82.53          32.98
     0.257              -14.25          32.04          80.01          32.45         -6.496          3.304         -115.7         -5.879          66.96          82.52          32.98
    0.2937              -14.26          32.04          80.01          32.46         -6.495            3.3         -115.7         -5.876          66.94          82.52          32.97
    0.3304              -14.27          32.03           80.0          32.47         -6.493          3.295         -115.7         -5.873          66.92          82.51          32.96
    0.3672              -14.28          32.02           80.0          32.47         -6.491          3.291         -115.6          -5.87          66.91           82.5          32.96
    0.4039              -14.29          32.01          79.99          32.48         -6.489          3.286         -115.6         -5.867          66.88          82.49          32.95
    0.4406               -14.3           32.0          79.99          32.49         -6.486          3.281         -115.5         -5.863          66.86          82.47          32.94
    0.4773              -14.32          31.99          79.98           32.5         -6.484          3.275         -115.5         -5.859          66.84          82.46          32.94
     0.514              -14.33          31.98          79.97          32.51         -6.481          3.269         -115.4         -5.855          66.81          82.45          32.93
    0.5507              -14.35          31.97          79.97          32.53         -6.479          3.262         -115.3          -5.85          66.78          82.43          32.92
    0.5875              -14.36          31.96          79.96          32.54         -6.475          3.254         -115.3         -5.845          66.75          82.42          32.91
    0.6242              -14.38          31.94          79.95          32.55         -6.472          3.246         -115.2         -5.839          66.71           82.4           32.9
    0.6609               -14.4          31.93          79.94          32.57         -6.468          3.238         -115.1         -5.833          66.68          82.38          32.89
    0.6976              -14.42          31.91          79.93          32.58         -6.464          3.228         -115.0         -5.826          66.64          82.36          32.88
    0.7343              -14.45          31.89          79.91           32.6          -6.46          3.218         -114.9         -5.819          66.59          82.34          32.86
     0.771              -14.47          31.87           79.9          32.62         -6.455          3.206         -114.8         -5.811          66.54          82.31          32.85
    0.8078               -14.5          31.85          79.89          32.64          -6.45          3.193         -114.7         -5.802          66.49          82.28          32.83
    0.8445              -14.53          31.82          79.87          32.67         -6.444          3.179         -114.6         -5.792          66.43          82.25          32.81
    0.8812              -14.57          31.79          79.85           32.7         -6.437          3.163         -114.4         -5.781          66.36          82.22          32.79
    0.9179              -14.61          31.76          79.83          32.73         -6.429          3.146         -114.2         -5.769          66.28          82.18          32.77
    0.9546              -14.66          31.72          79.81          32.76         -6.421          3.126         -114.0         -5.755           66.2          82.14          32.74
    0.9913              -14.71          31.69          79.78           32.8         -6.412          3.104         -113.8          -5.74           66.1          82.09          32.71
     1.028              -14.76          31.64          79.75          32.84         -6.401          3.079         -113.6         -5.723           66.0          82.03          32.68
     1.065              -14.83          31.59          79.72          32.89         -6.389          3.051         -113.3         -5.703          65.88          81.97          32.64
     1.101               -14.9          31.53          79.68          32.95         -6.376          3.018         -113.0          -5.68          65.74           81.9           32.6
     1.138              -14.99          31.46          79.64          33.01          -6.36          2.981         -112.7         -5.654          65.58          81.82          32.55
     1.175              -15.09          31.39          79.59          33.09         -6.342          2.938         -112.3         -5.624          65.39          81.73           32.5
     1.212               -15.2           31.3          79.53          33.17         -6.321          2.888         -111.8         -5.589          65.18          81.62          32.43
     1.248              -15.33          31.19          79.47          33.27         -6.296           2.83         -111.2         -5.549          64.93          81.49          32.35
     1.285              -15.49          31.07          79.39          33.39         -6.267          2.761         -110.6         -5.501          64.63          81.34          32.26
     1.322              -15.68          30.92          79.29          33.53         -6.232           2.68         -109.8         -5.444          64.28          81.16          32.16
     1.358               -15.9          30.75          79.18           33.7         -6.191          2.582         -108.8         -5.375          63.86          80.95          32.03
